<svg xmlns="http://www.w3.org/2000/svg" viewBox="0 0 640 480" width="640" height="480">
  <g fill-rule="evenodd">
    <path d="M0 0h640.003v480H0V0z" fill="#009"/>
    <path d="M187.688 0L545.27 480.25V.25L187.688 0z" fill="#fc0"/>
    <path d="M455.149 451.207L434.25 435.62l-21.48 15.512 8.122-25.45-21.135-15.717 26.185.054 8.142-25.411 8.043 25.443 26.193.076-20.957 15.815 7.786 25.265zM514.033 471.375l-26.192-.076-8.044-25.443-8.141 25.412-26.186-.054 21.135 15.716-8.12 25.45 21.479-15.511 20.898 15.586-7.785-25.264 20.956-15.816zM401.65 364.823l20.956-15.815-26.192-.076-8.044-25.443-8.141 25.412-26.186-.054 21.135 15.716-8.12 25.45 21.478-15.511 20.9 15.586-7.787-25.265zM355.936 303.15l20.956-15.815-26.192-.076-8.044-25.443-8.14 25.412-26.186-.055 21.135 15.716-8.121 25.451 21.479-15.512 20.899 15.587-7.786-25.265zM310.223 242.243l20.955-15.816-26.191-.076-8.044-25.443-8.141 25.412-26.186-.055 21.135 15.716-8.12 25.451 21.479-15.513 20.898 15.587-7.785-25.264zM264.51 180.74l20.955-15.816-26.192-.076-8.043-25.443-8.142 25.412-26.185-.055 21.135 15.716-8.121 25.451 21.48-15.512 20.898 15.587-7.786-25.265zM218.796 119.576l20.956-15.815-26.192-.076-8.044-25.443-8.141 25.411-26.186-.054 21.135 15.716-8.121 25.45 21.48-15.512 20.898 15.588-7.785-25.265zM173.082 58.329l20.956-15.816-26.191-.076-8.045-25.443-8.141 25.412-26.186-.055 21.135 15.717-8.12 25.45 21.48-15.512 20.898 15.587-7.786-25.264zM127.369-2.919l20.956-15.815-26.192-.076-8.044-25.443-8.142 25.411-26.185-.054L100.897-3.18l-8.12 25.45 21.479-15.513 20.899 15.588-7.786-25.264z" fill="#fff"/>
  </g>
</svg>
